<svg aria-hidden="true" style="width:0;height:0;position:absolute;overflow:hidden" xmlns="http://www.w3.org/2000/svg"><defs><symbol id="thumb-down" viewBox="0 0 64 64" fill="none" xmlns="http://www.w3.org/2000/svg"><path d="M8.501 0h26.238c2.777.117 4.781 2.015 4.815 4.101v9.926c2.58 2.837 6.16 4.848 8.752 7.582.912.965 1.925 1.712 3.04 2.24 3.996 1.718 8.649.677 11.834 3.12 2.493 4.906-.995 10.785-6.468 12.44-4.47 1.302-8.926.43-12.874-1.188.012 5.859-.044 11.718-.081 17.577-.422 4.77-4.224 8.17-9.63 8.202-5.448-.013-9.41-3.98-9.508-8.203v-6.892c-1.605-.23-3.06-.678-4.366-1.344-3.356.386-6.646-.498-9.018-2.206-19.37-.938-7.878-22.37-7.59-30.398V4.101C3.778 1.74 6.02.028 8.501 0Zm0 14.785c-.164 6.423-11.66 28.369 4.815 26.262 1.482 2.322 5.449 3.216 7.957 1.792 2.526 2.164 5.7 2.78 8.202.69 0 2.067.013 4.112.04 6.134.028 2.022.041 4.067.041 6.135.06 2.366 2.115 4.006 4.57 4.032 2.904-.054 4.745-1.916 4.775-4.032 0-8.021.08-15.928.081-23.367 6.363.67 15.003 7.08 20.015.534.61-1.048.869-1.886.633-2.981-.109-.184-.218-.287-.327-.31a27.198 27.198 0 0 0-.53-.104c-5.044-.695-10.086-1.345-13.425-4.652-3.305-3.641-8.509-5.788-10.61-9.96v-.173H8.502Z" fill="#408CFF"/></symbol><symbol id="quotes" viewBox="0 0 32 22" fill="none" xmlns="http://www.w3.org/2000/svg"><path d="M18.902 3.886A6.956 6.956 0 0 1 31.71 7.679a6.964 6.964 0 0 1-10.7 5.874c.548 1.625 1.567 3.359 3.247 5.097a1.743 1.743 0 0 1-2.507 2.423c-6.208-6.434-5.402-13.427-2.85-17.179v-.008Zm-16.71 0A6.956 6.956 0 0 1 15 7.679a6.965 6.965 0 0 1-10.7 5.874c.548 1.625 1.567 3.359 3.247 5.097a1.743 1.743 0 0 1-2.507 2.423C-1.168 14.639-.362 7.646 2.191 3.894v-.008Z" fill="#408CFF"/></symbol><symbol id="arrow-left-slider" viewBox="0 0 30 17" fill="none" xmlns="http://www.w3.org/2000/svg"><path d="M23.438 9.444H6.563a.932.932 0 0 1-.938-.944c0-.529.412-.944.938-.944h16.875c.524 0 .937.415.937.944a.932.932 0 0 1-.938.944Z" fill="#040B15"/><path d="M11.25 16.056a.876.876 0 0 1-.656-.284L4.03 9.162a.94.94 0 0 1 0-1.342l6.563-6.592a.923.923 0 0 1 1.331 0 .94.94 0 0 1 0 1.34l-5.906 5.95 5.906 5.95a.94.94 0 0 1 0 1.342.938.938 0 0 1-.656.283l-.019-.037Z" fill="#040B15"/></symbol><symbol id="arrow-right-slider" viewBox="0 0 30 17" fill="none" xmlns="http://www.w3.org/2000/svg"><path d="M6.563 7.556h16.875c.524 0 .937.415.937.944a.932.932 0 0 1-.938.944H6.563a.932.932 0 0 1-.937-.944c0-.529.412-.944.938-.944Z" fill="#040B15"/><path d="M18.75.944a.875.875 0 0 1 .656.284l6.563 6.61a.94.94 0 0 1 0 1.342l-6.563 6.592a.923.923 0 0 1-1.331 0 .94.94 0 0 1 0-1.34l5.906-5.95-5.906-5.95a.94.94 0 0 1 0-1.342.938.938 0 0 1 .656-.283l.019.037Z" fill="#040B15"/></symbol><symbol id="phone" viewBox="0 0 20 18" fill="none" xmlns="http://www.w3.org/2000/svg"><path d="M1.237 2.797 3.727.511c.175-.162.384-.29.614-.378C4.57.045 4.817 0 5.066 0c.507 0 .984.183 1.341.511l2.679 2.462c.176.162.316.354.412.565.095.211.144.438.144.666 0 .467-.198.905-.556 1.234l-1.959 1.8A8.486 8.486 0 0 0 9.01 9.732a9.294 9.294 0 0 0 2.713 1.736l1.959-1.8c.176-.162.384-.29.614-.379.23-.087.476-.132.725-.132.507 0 .984.182 1.342.511l2.68 2.46c.177.162.317.354.413.566.095.211.144.438.144.667 0 .466-.199.905-.556 1.233l-2.485 2.284a3.214 3.214 0 0 1-2.662.787c-3.15-.477-6.276-2.018-8.797-4.334C2.579 11.017.906 8.147.379 5.242c-.158-.887.162-1.8.858-2.445Z" fill="#fff"/></symbol><symbol id="mail" viewBox="0 0 25 19" fill="none" xmlns="http://www.w3.org/2000/svg"><path d="m.997 6.124 10.625 5.541a.746.746 0 0 0 .69 0l7.567-3.945c.486.181 1.012.28 1.561.28.525 0 1.03-.09 1.496-.256v8.006c0 .83-.316 1.628-.885 2.232a3.237 3.237 0 0 1-2.171 1.013l-.185.005H4.238a3.236 3.236 0 0 1-2.226-.888 3.254 3.254 0 0 1-1.01-2.178l-.005-.184V6.124ZM4.238 1h13.47a4.49 4.49 0 0 0-.755 2.5c0 1.306.554 2.482 1.44 3.304l-6.426 3.35L.997 4.435V4.25c0-.83.317-1.629.885-2.232a3.237 3.237 0 0 1 2.173-1.013L4.238 1ZM21.44 0c.926 0 1.814.369 2.468 1.025a3.505 3.505 0 0 1 0 4.95 3.485 3.485 0 0 1-4.936 0 3.505 3.505 0 0 1 0-4.95A3.485 3.485 0 0 1 21.44 0Z" fill="#fff"/></symbol><symbol id="instagram" viewBox="0 0 24 24" fill="none" xmlns="http://www.w3.org/2000/svg"><path d="M11.97 7.998c2.197 0 3.99 1.799 3.99 4.002 0 2.204-1.793 4.002-3.99 4.002S7.98 14.204 7.98 12c0-2.203 1.793-4.002 3.99-4.002ZM0 12c0-1.657-.015-3.3.078-4.953C.172 5.125.61 3.42 2.01 2.015 3.414.607 5.111.172 7.027.08 8.68-.014 10.317 0 11.967 0c1.652 0 3.29-.015 4.94.078 1.915.093 3.616.531 5.017 1.936 1.404 1.408 1.838 3.11 1.93 5.032.093 1.657.079 3.299.079 4.953 0 1.654.014 3.3-.078 4.953-.093 1.922-.53 3.627-1.931 5.032-1.404 1.408-3.102 1.843-5.018 1.936-1.652.093-3.29.078-4.94.078-1.652 0-3.29.015-4.939-.078-1.916-.093-3.616-.531-5.017-1.936C.606 20.577.172 18.875.08 16.953-.018 15.3 0 13.657 0 12Zm11.969 6.157A6.14 6.14 0 0 0 18.11 12a6.14 6.14 0 1 0-12.28 0 6.14 6.14 0 0 0 6.14 6.157ZM5.578 7.03c.794 0 1.434-.643 1.434-1.438a1.434 1.434 0 1 0-2.759.55 1.436 1.436 0 0 0 1.325.888Z" fill="#fff"/></symbol><symbol id="facebook" viewBox="0 0 16 24" fill="none" xmlns="http://www.w3.org/2000/svg"><path d="M15.795.674a.66.66 0 0 0-.2-.47.687.687 0 0 0-.48-.196h-3.4a6.566 6.566 0 0 0-4.662 1.624 6.31 6.31 0 0 0-2.137 4.374v3.599h-3.4c-.18 0-.353.07-.48.195a.66.66 0 0 0-.2.471v3.466a.66.66 0 0 0 .2.471c.127.125.3.195.48.195h3.4v8.93a.66.66 0 0 0 .199.472c.128.125.3.195.48.195h4.08c.18 0 .354-.07.481-.195a.66.66 0 0 0 .2-.471v-8.93h3.562a.69.69 0 0 0 .42-.135.666.666 0 0 0 .246-.359l.98-3.466a.653.653 0 0 0-.116-.577.678.678 0 0 0-.537-.262h-4.556v-3.6c.034-.329.192-.635.444-.857.251-.221.578-.343.916-.342h3.4c.18 0 .353-.07.48-.195a.66.66 0 0 0 .2-.471V.674Z" fill="#fff"/></symbol><symbol id="twitter" viewBox="0 0 25 19" fill="none" xmlns="http://www.w3.org/2000/svg"><path d="M8.216 19c9.031 0 13.972-7.312 13.972-13.641 0-.205 0-.412-.009-.617a9.876 9.876 0 0 0 2.452-2.487c-.898.387-1.85.642-2.826.757A4.846 4.846 0 0 0 23.97.356c-.965.559-2.021.95-3.122 1.16A4.952 4.952 0 0 0 18.061.063a5.016 5.016 0 0 0-3.115.504 4.85 4.85 0 0 0-2.158 2.252 4.701 4.701 0 0 0-.31 3.07A14.207 14.207 0 0 1 6.87 4.437 13.894 13.894 0 0 1 2.355.88a4.711 4.711 0 0 0-.535 3.497 4.808 4.808 0 0 0 2.058 2.907 5.06 5.06 0 0 1-2.223-.596v.066A4.738 4.738 0 0 0 2.766 9.79a4.94 4.94 0 0 0 2.826 1.666c-.421.113-.857.17-1.294.168-.308 0-.616-.027-.918-.083a4.803 4.803 0 0 0 1.747 2.383 4.987 4.987 0 0 0 2.84.944 10.004 10.004 0 0 1-6.103 2.057c-.39.001-.78-.02-1.166-.066A14.219 14.219 0 0 0 8.216 19Z" fill="#fff"/></symbol><symbol id="discord" viewBox="0 0 25 18" fill="none" xmlns="http://www.w3.org/2000/svg"><path d="M20.795 1.493A19.982 19.982 0 0 0 15.923.001a.076.076 0 0 0-.078.037c-.21.369-.444.852-.607 1.23a18.478 18.478 0 0 0-5.472 0C9.585.845 9.38.435 9.15.037A.076.076 0 0 0 9.072 0C7.39.287 5.752.789 4.2 1.493a.061.061 0 0 0-.03.027C1.066 6.094.215 10.555.632 14.96c.001.021.015.042.031.055a19.964 19.964 0 0 0 5.976 2.982.076.076 0 0 0 .084-.029c.46-.62.87-1.273 1.223-1.96a.073.073 0 0 0-.041-.104 13.355 13.355 0 0 1-1.867-.878.074.074 0 0 1-.03-.098.075.075 0 0 1 .022-.028c.126-.093.252-.19.371-.288a.075.075 0 0 1 .077-.01c3.917 1.765 8.158 1.765 12.027 0a.08.08 0 0 1 .08.01c.12.098.245.195.37.288a.075.075 0 0 1 .032.064.075.075 0 0 1-.037.062c-.597.343-1.222.636-1.869.876a.074.074 0 0 0-.04.105c.36.686.77 1.342 1.222 1.961a.075.075 0 0 0 .084.029 19.902 19.902 0 0 0 5.985-2.982.073.073 0 0 0 .031-.054c.5-5.094-.836-9.518-3.539-13.44a.05.05 0 0 0-.03-.028ZM8.532 12.277c-1.18 0-2.15-1.068-2.15-2.379 0-1.312.952-2.38 2.15-2.38 1.207 0 2.17 1.077 2.151 2.38 0 1.311-.952 2.38-2.15 2.38Zm7.952 0c-1.179 0-2.15-1.068-2.15-2.379 0-1.312.952-2.38 2.15-2.38 1.207 0 2.17 1.077 2.151 2.38 0 1.311-.944 2.38-2.15 2.38Z" fill="#fff"/></symbol><symbol id="attention" viewBox="0 0 48 48" fill="none" xmlns="http://www.w3.org/2000/svg"><path d="M24 44a19.937 19.937 0 0 0 14.142-5.858A19.936 19.936 0 0 0 44 24a19.938 19.938 0 0 0-5.858-14.142A19.937 19.937 0 0 0 24 4 19.938 19.938 0 0 0 9.858 9.858 19.938 19.938 0 0 0 4 24a19.936 19.936 0 0 0 5.858 14.142A19.94 19.94 0 0 0 24 44Z" stroke="#FF9C40" stroke-width="4" stroke-linejoin="round"/><path fill-rule="evenodd" clip-rule="evenodd" d="M24 37a2.5 2.5 0 1 0 0-5 2.5 2.5 0 0 0 0 5Z" fill="#FF9C40"/><path d="M24 12v16" stroke="#FF9C40" stroke-width="4" stroke-linecap="round" stroke-linejoin="round"/></symbol><symbol id="icon-search" viewBox="0 0 24 24"><path d="M16.041 15.856a.995.995 0 0 0-.186.186A6.97 6.97 0 0 1 11 18c-1.933 0-3.682-.782-4.95-2.05S4 12.933 4 11s.782-3.682 2.05-4.95S9.067 4 11 4s3.682.782 4.95 2.05S18 9.067 18 11a6.971 6.971 0 0 1-1.959 4.856zm5.666 4.437-3.675-3.675A8.967 8.967 0 0 0 20 11c0-2.485-1.008-4.736-2.636-6.364S13.485 2 11 2 6.264 3.008 4.636 4.636 2 8.515 2 11s1.008 4.736 2.636 6.364S8.515 20 11 20a8.967 8.967 0 0 0 5.618-1.968l3.675 3.675a.999.999 0 1 0 1.414-1.414z"/></symbol><symbol id="icon-send" viewBox="0 0 24 24"><path d="M22.963 2.269a1.014 1.014 0 0 0-.354-1.063.99.99 0 0 0-.812-.185 1.122 1.122 0 0 0-.126.035l-.021.007L1.67 8.056a.999.999 0 0 0-.076 1.858l8.649 3.844 3.844 8.649a1 1 0 0 0 1.857-.076l6.993-19.979c.01-.027.019-.054.027-.082zm-12.184 9.538L4.711 9.111l13.483-4.72zm8.83-6.001-4.72 13.483-2.696-6.068z"/></symbol><symbol id="icon-smile" viewBox="0 0 24 24"><path d="M23 12c0-3.037-1.232-5.789-3.222-7.778S15.037 1 12 1 6.211 2.232 4.222 4.222 1 8.963 1 12s1.232 5.789 3.222 7.778S8.963 23 12 23s5.789-1.232 7.778-3.222S23 15.037 23 12zm-2 0c0 2.486-1.006 4.734-2.636 6.364S14.486 21 12 21s-4.734-1.006-6.364-2.636S3 14.486 3 12s1.006-4.734 2.636-6.364S9.514 3 12 3s4.734 1.006 6.364 2.636S21 9.514 21 12zM7.2 14.6s.131.173.331.383a6.776 6.776 0 0 0 1.874 1.393c.705.352 1.579.624 2.595.624s1.89-.272 2.595-.624A6.776 6.776 0 0 0 16.8 14.6a1 1 0 0 0-1.6-1.2c-.041.05-.181.206-.181.206a4.752 4.752 0 0 1-1.318.982c-.48.239-1.05.412-1.701.412s-1.221-.173-1.701-.413a4.737 4.737 0 0 1-.91-.6 4.959 4.959 0 0 1-.408-.382A7.103 7.103 0 0 1 8.8 13.4a1 1 0 0 0-1.6 1.2zM9 10a1 1 0 1 0 0-2 1 1 0 0 0 0 2zm6 0a1 1 0 1 0 0-2 1 1 0 0 0 0 2z"/></symbol><symbol id="icon-user" viewBox="0 0 24 24"><path d="M21 21v-2c0-1.38-.561-2.632-1.464-3.536S17.38 14 16 14H8c-1.38 0-2.632.561-3.536 1.464S3 17.62 3 19v2a1 1 0 0 0 2 0v-2c0-.829.335-1.577.879-2.121S7.171 16 8 16h8c.829 0 1.577.335 2.121.879S19 18.171 19 19v2a1 1 0 0 0 2 0zM17 7c0-1.38-.561-2.632-1.464-3.536S13.38 2 12 2s-2.632.561-3.536 1.464S7 5.62 7 7s.561 2.632 1.464 3.536S10.62 12 12 12s2.632-.561 3.536-1.464S17 8.38 17 7zm-2 0c0 .829-.335 1.577-.879 2.121S12.829 10 12 10s-1.577-.335-2.121-.879S9 7.829 9 7s.335-1.577.879-2.121S11.171 4 12 4s1.577.335 2.121.879S15 6.171 15 7z"/></symbol><symbol id="icon-upload-cloud" viewBox="0 0 24 24"><path d="M11 14.414V21a1 1 0 0 0 2 0v-6.586l2.293 2.293a.999.999 0 1 0 1.414-1.414l-4-4A1.008 1.008 0 0 0 12 11a.997.997 0 0 0-.707.293l-4 4a.999.999 0 1 0 1.414 1.414zm9.869 4.854c1.454-.793 2.451-2.102 2.884-3.574s.305-3.112-.488-4.566a5.967 5.967 0 0 0-2.959-2.663A6.09 6.09 0 0 0 18.007 8h-.527a8.971 8.971 0 0 0-3.917-4.752C11.58 2.08 9.148 1.667 6.742 2.289S2.409 4.451 1.24 6.434s-1.581 4.415-.959 6.821a8.904 8.904 0 0 0 1.975 3.713 1 1 0 1 0 1.487-1.337 6.885 6.885 0 0 1-1.526-2.877c-.484-1.872-.164-3.761.746-5.305s2.407-2.74 4.279-3.224 3.761-.164 5.305.746 2.74 2.407 3.224 4.279c.116.435.506.75.969.75h1.253a4.11 4.11 0 0 1 1.545.312 3.97 3.97 0 0 1 1.97 1.773c.529.97.615 2.061.325 3.044s-.953 1.854-1.923 2.382a1 1 0 1 0 .958 1.756z"/></symbol><symbol id="icon-users" viewBox="0 0 24 24"><path d="M18 21v-2c0-1.38-.561-2.632-1.464-3.536S14.38 14 13 14H5c-1.38 0-2.632.561-3.536 1.464S0 17.62 0 19v2a1 1 0 0 0 2 0v-2c0-.829.335-1.577.879-2.121S4.171 16 5 16h8c.829 0 1.577.335 2.121.879S16 18.171 16 19v2a1 1 0 0 0 2 0zM14 7c0-1.38-.561-2.632-1.464-3.536S10.38 2 9 2s-2.632.561-3.536 1.464S4 5.62 4 7s.561 2.632 1.464 3.536S7.62 12 9 12s2.632-.561 3.536-1.464S14 8.38 14 7zm-2 0c0 .829-.335 1.577-.879 2.121S9.829 10 9 10s-1.577-.335-2.121-.879S6 7.829 6 7s.335-1.577.879-2.121S8.171 4 9 4s1.577.335 2.121.879S12 6.171 12 7zm12 14v-2a4.972 4.972 0 0 0-1.215-3.261 5.055 5.055 0 0 0-2.529-1.576 1 1 0 1 0-.511 1.933 3.049 3.049 0 0 1 1.528.952c.454.526.726 1.206.727 1.952v2a1 1 0 0 0 2 0zM15.752 4.099c.803.206 1.445.715 1.837 1.377s.531 1.47.325 2.273a2.969 2.969 0 0 1-1.105 1.652 3.08 3.08 0 0 1-1.063.511 1 1 0 1 0 .508 1.934 5.074 5.074 0 0 0 1.752-.844 4.965 4.965 0 0 0 1.845-2.758c.342-1.337.11-2.689-.542-3.788s-1.725-1.953-3.062-2.296a1 1 0 0 0-.496 1.938z"/></symbol></defs></svg>