<svg aria-hidden="true" style="position: absolute; width: 0; height: 0; overflow: hidden;" version="1.1" xmlns="http://www.w3.org/2000/svg" xmlns:xlink="http://www.w3.org/1999/xlink">
<defs>


<symbol id="thumb-down" width="64" height="64" viewBox="0 0 64 64" fill="none" xmlns="http://www.w3.org/2000/svg">
<path d="M8.50098 -2.42594e-06L34.7387 -1.27905e-06C37.5155 0.116906 39.5204 2.01536 39.5537 4.10123L39.5537 14.0269C42.1335 16.864 45.7139 18.8747 48.3065 21.609C49.2178 22.5741 50.2311 23.3208 51.3465 23.8492C55.3424 25.5673 59.9946 24.5263 63.18 26.9682C65.6731 31.8753 62.1854 37.7539 56.7124 39.4098C52.2429 40.7114 47.7857 39.8392 43.8383 38.2208C43.8498 44.0798 43.7936 49.9386 43.7567 55.7975C43.3351 60.5673 39.5328 63.9683 34.1267 64C28.6788 63.987 24.7169 60.0201 24.6191 55.7975L24.6191 48.9047C23.0142 48.6749 21.5588 48.2268 20.253 47.5606C16.8971 47.9466 13.607 47.0631 11.2349 45.3549C-8.1351 44.4175 3.35678 22.9846 3.64523 14.9574L3.64523 4.10123C3.77759 1.73957 6.01889 0.0281575 8.50098 -2.42594e-06ZM8.50098 14.7851C8.33736 21.2078 -3.15945 43.1537 13.316 41.0469C14.7981 43.3693 18.7646 44.263 21.273 42.8391C23.7992 45.0026 26.9729 45.6187 29.4749 43.5284C29.4749 45.5962 29.4885 47.6411 29.5157 49.663C29.5429 51.6849 29.5565 53.7298 29.5565 55.7976C29.6154 58.164 31.671 59.8041 34.1266 59.8299C37.0298 59.7758 38.8712 57.9145 38.9008 55.7976C38.9013 47.777 38.9814 39.8705 38.9824 32.4308C45.3452 33.1004 53.985 39.5119 58.9974 32.9651C59.6068 31.917 59.8656 31.0788 59.6299 29.9839C59.5211 29.8002 59.4122 29.6967 59.3034 29.6738C59.1946 29.6508 59.0178 29.6164 58.773 29.5704C53.7295 28.8747 48.6867 28.2253 45.3481 24.9177C42.0428 21.277 36.8392 19.1303 34.7387 14.9576L34.7387 14.7853L8.50098 14.7851Z" fill="#408CFF"/>
</symbol>


<symbol id="quotes" width="32" height="22" viewBox="0 0 32 22" fill="none" xmlns="http://www.w3.org/2000/svg">
<path d="M18.9019 3.88587C19.7157 2.61855 20.9188 1.6496 22.3305 1.12465C23.7421 0.599697 25.286 0.547104 26.7301 0.974778C28.1742 1.40245 29.4405 2.28729 30.3387 3.49629C31.2368 4.70529 31.7183 6.17314 31.7107 7.67923C31.71 8.92642 31.3743 10.1505 30.7388 11.2237C30.1033 12.2968 29.1913 13.1796 28.098 13.7798C27.0048 14.38 25.7704 14.6756 24.5238 14.6357C23.2773 14.5958 22.0643 14.2219 21.0116 13.5531C21.5589 15.1782 22.5783 16.912 24.2577 18.6499C24.579 18.9823 24.7551 19.4287 24.7473 19.891C24.7395 20.3532 24.5483 20.7934 24.2159 21.1147C23.8835 21.4361 23.4371 21.6122 22.9748 21.6043C22.5126 21.5965 22.0724 21.4054 21.7511 21.073C15.543 14.6393 16.3493 7.6458 18.9019 3.89422V3.88587ZM2.19105 3.88587C3.00484 2.61855 4.20798 1.6496 5.61963 1.12465C7.03129 0.599697 8.5752 0.547104 10.0193 0.974778C11.4634 1.40245 12.7297 2.28729 13.6278 3.49629C14.526 4.70529 15.0075 6.17314 14.9999 7.67923C14.9991 8.92642 14.6635 10.1505 14.028 11.2237C13.3925 12.2968 12.4805 13.1796 11.3872 13.7798C10.2939 14.38 9.05953 14.6756 7.81298 14.6357C6.56643 14.5958 5.35346 14.2219 4.30079 13.5531C4.84807 15.1782 5.86743 16.912 7.54687 18.6499C7.86819 18.9823 8.0443 19.4287 8.03647 19.891C8.02863 20.3532 7.83749 20.7934 7.50509 21.1147C7.17269 21.4361 6.72626 21.6122 6.26402 21.6043C5.80177 21.5965 5.36156 21.4054 5.04025 21.073C-1.16783 14.6393 -0.36153 7.6458 2.19105 3.89422V3.88587Z" fill="#408CFF"/>
</symbol>

<symbol id="arrow-left-slider" width="30" height="17" viewBox="0 0 30 17" fill="none" xmlns="http://www.w3.org/2000/svg">
<path d="M23.4375 9.44443H6.5625C6.0375 9.44443 5.625 9.02888 5.625 8.49999C5.625 7.9711 6.0375 7.55554 6.5625 7.55554H23.4375C23.9625 7.55554 24.375 7.9711 24.375 8.49999C24.375 9.02888 23.9625 9.44443 23.4375 9.44443Z" fill="#040B15"/>
<path d="M11.25 16.0556C11.127 16.0571 11.0051 16.0327 10.8921 15.9839C10.7791 15.9351 10.6775 15.863 10.5938 15.7722L4.03125 9.16112C3.65625 8.78335 3.65625 8.19779 4.03125 7.82001L10.5938 1.22779C10.9688 0.850014 11.55 0.850014 11.925 1.22779C12.3 1.60557 12.3 2.19112 11.925 2.5689L6.01875 8.5189L11.925 14.4689C12.3 14.8467 12.3 15.4322 11.925 15.81C11.7375 15.9989 11.4938 16.0933 11.2688 16.0933L11.25 16.0556Z" fill="#040B15"/>
</symbol>



<symbol id="arrow-right-slider" width="30" height="17" viewBox="0 0 30 17" fill="none" xmlns="http://www.w3.org/2000/svg">
<path d="M6.5625 7.55557L23.4375 7.55557C23.9625 7.55557 24.375 7.97112 24.375 8.50001C24.375 9.0289 23.9625 9.44446 23.4375 9.44446L6.5625 9.44446C6.0375 9.44446 5.625 9.0289 5.625 8.50001C5.625 7.97112 6.0375 7.55557 6.5625 7.55557Z" fill="#040B15"/>
<path d="M18.75 0.944431C18.873 0.942921 18.9949 0.96735 19.1079 1.01615C19.2209 1.06494 19.3225 1.13703 19.4062 1.22776L25.9687 7.83888C26.3437 8.21665 26.3437 8.80221 25.9687 9.17999L19.4062 15.7722C19.0312 16.15 18.45 16.15 18.075 15.7722C17.7 15.3944 17.7 14.8089 18.075 14.4311L23.9813 8.4811L18.075 2.5311C17.7 2.15332 17.7 1.56776 18.075 1.18999C18.2625 1.0011 18.5062 0.906653 18.7312 0.906653L18.75 0.944431Z" fill="#040B15"/>
</symbol>



<symbol id="phone" width="20" height="18" viewBox="0 0 20 18" fill="none" xmlns="http://www.w3.org/2000/svg">
<path d="M1.23741 2.79727L3.72659 0.511328C3.90218 0.349215 4.11088 0.220589 4.34071 0.132839C4.57054 0.0450892 4.81697 -5.48273e-05 5.06583 4.99716e-08C5.57302 4.99716e-08 6.04982 0.182617 6.40742 0.511328L9.08591 2.97344C9.26227 3.13484 9.4022 3.32669 9.49766 3.53795C9.59312 3.74921 9.64224 3.97573 9.64218 4.20449C9.64218 4.6707 9.44351 5.10898 9.08591 5.4377L7.12729 7.23809C7.58576 8.16698 8.22318 9.01202 9.00878 9.73242C9.79241 10.4563 10.7116 11.0444 11.7223 11.4684L13.681 9.66797C13.8565 9.50586 14.0652 9.37723 14.2951 9.28948C14.5249 9.20173 14.7713 9.15659 15.0202 9.15664C15.5274 9.15664 16.0042 9.33926 16.3618 9.66797L19.0426 12.1279C19.2192 12.2896 19.3592 12.4818 19.4547 12.6935C19.5502 12.9051 19.5992 13.132 19.5989 13.3611C19.5989 13.8273 19.4002 14.2656 19.0426 14.5943L16.5581 16.8781C15.9878 17.4045 15.2002 17.7031 14.3915 17.7031C14.2209 17.7031 14.0572 17.6902 13.896 17.6645C10.7454 17.1875 7.62045 15.6471 5.09856 13.3311C2.579 11.0172 0.905523 8.14688 0.379642 5.24219C0.220709 4.35488 0.540913 3.4418 1.23741 2.79727Z" fill="white"/>
</symbol>


<symbol id="mail" width="25" height="19" viewBox="0 0 25 19" fill="none" xmlns="http://www.w3.org/2000/svg">
<path d="M0.997192 6.124L11.6217 11.665C11.7282 11.7206 11.8466 11.7496 11.9667 11.7496C12.0868 11.7496 12.2052 11.7206 12.3117 11.665L19.8787 7.72C20.3654 7.901 20.8909 8 21.4404 8C21.9649 8 22.4695 7.91 22.9362 7.744V15.75C22.9363 16.58 22.6197 17.3785 22.0514 17.9819C21.483 18.5853 20.706 18.9478 19.8797 18.995L19.6952 19H4.23818C3.41035 19.0001 2.61387 18.6824 2.01214 18.1123C1.41041 17.5422 1.04905 16.7628 1.00218 15.934L0.997192 15.75V6.124ZM4.23818 1H17.7087C17.2147 1.73952 16.9515 2.60987 16.9528 3.5C16.9528 4.806 17.5073 5.982 18.3938 6.804L11.9667 10.154L0.997192 4.435V4.25C0.997138 3.41986 1.31387 2.62117 1.8824 2.01777C2.45094 1.41437 3.22818 1.052 4.05469 1.005L4.23818 1ZM21.4404 0C22.3661 0 23.2538 0.368749 23.9084 1.02513C24.5629 1.6815 24.9307 2.57174 24.9307 3.5C24.9307 4.42826 24.5629 5.3185 23.9084 5.97487C23.2538 6.63125 22.3661 7 21.4404 7C20.5147 7 19.6269 6.63125 18.9724 5.97487C18.3178 5.3185 17.9501 4.42826 17.9501 3.5C17.9501 2.57174 18.3178 1.6815 18.9724 1.02513C19.6269 0.368749 20.5147 0 21.4404 0Z" fill="white"/>
</symbol>

<symbol id="instagram" width="24" height="24" viewBox="0 0 24 24" fill="none" xmlns="http://www.w3.org/2000/svg">
<path d="M11.9699 7.9983C14.1672 7.9983 15.9604 9.79651 15.9604 12C15.9604 14.2035 14.1672 16.0017 11.9699 16.0017C9.77256 16.0017 7.97937 14.2035 7.97937 12C7.97937 9.79651 9.77256 7.9983 11.9699 7.9983ZM0.00133514 12C0.00133514 10.3429 -0.0136337 8.70077 0.0791702 7.04665C0.171972 5.12536 0.609043 3.4202 2.01007 2.01525C3.41408 0.607302 5.11147 0.172008 7.0274 0.0789456C8.67989 -0.0141173 10.3174 0.000892936 11.9669 0.000892936C13.6194 0.000892936 15.2569 -0.0141173 16.9064 0.0789456C18.8223 0.172008 20.5227 0.610305 21.9237 2.01525C23.3277 3.42321 23.7618 5.12536 23.8546 7.04665C23.9474 8.70377 23.9325 10.3459 23.9325 12C23.9325 13.6541 23.9474 15.2992 23.8546 16.9533C23.7618 18.8746 23.3248 20.5798 21.9237 21.9847C20.5197 23.3927 18.8223 23.828 16.9064 23.9211C15.2539 24.0141 13.6164 23.9991 11.9669 23.9991C10.3144 23.9991 8.67689 24.0141 7.0274 23.9211C5.11147 23.828 3.41109 23.3897 2.01007 21.9847C0.606049 20.5768 0.171972 18.8746 0.0791702 16.9533C-0.0166264 15.2992 0.00133514 13.6571 0.00133514 12ZM11.9699 18.1572C15.3677 18.1572 18.1098 15.4073 18.1098 12C18.1098 8.5927 15.3677 5.84284 11.9699 5.84284C8.57211 5.84284 5.82994 8.5927 5.82994 12C5.82994 15.4073 8.57211 18.1572 11.9699 18.1572ZM5.57848 7.02864C6.37179 7.02864 7.01243 6.38621 7.01243 5.59067C7.01243 4.79513 6.37179 4.1527 5.57848 4.1527C4.78517 4.1527 4.14453 4.79513 4.14453 5.59067C4.14429 5.77957 4.18122 5.96667 4.2532 6.14124C4.32518 6.31581 4.43079 6.47442 4.564 6.608C4.6972 6.74157 4.85537 6.84748 5.02945 6.91967C5.20353 6.99185 5.3901 7.02888 5.57848 7.02864Z" fill="white"/>
</symbol>

<symbol id="facebook" width="16" height="24" viewBox="0 0 16 24" fill="none" xmlns="http://www.w3.org/2000/svg">
<path d="M15.7947 0.674329C15.7947 0.497576 15.723 0.328063 15.5955 0.203079C15.468 0.0780961 15.2951 0.00788117 15.1148 0.00788117H11.7151C10.0032 -0.0757035 8.32718 0.508239 7.05317 1.63212C5.77916 2.756 5.01076 4.32846 4.91586 6.00591V9.60473H1.51623C1.3359 9.60473 1.16296 9.67494 1.03545 9.79993C0.907939 9.92491 0.836304 10.0944 0.836304 10.2712V13.7367C0.836304 13.9135 0.907939 14.083 1.03545 14.208C1.16296 14.3329 1.3359 14.4032 1.51623 14.4032H4.91586V23.3336C4.91586 23.5103 4.98749 23.6798 5.11501 23.8048C5.24252 23.9298 5.41546 24 5.59579 24H9.67534C9.85567 24 10.0286 23.9298 10.1561 23.8048C10.2836 23.6798 10.3553 23.5103 10.3553 23.3336V14.4032H13.9181C14.0693 14.4053 14.2169 14.3579 14.3376 14.2686C14.4583 14.1793 14.5451 14.0531 14.5844 13.91L15.5635 10.4445C15.5906 10.346 15.5942 10.2427 15.5741 10.1427C15.5541 10.0426 15.5109 9.94839 15.4478 9.86727C15.3847 9.78615 15.3035 9.7203 15.2104 9.67478C15.1173 9.62927 15.0148 9.6053 14.9108 9.60473H10.3553V6.00591C10.3891 5.67599 10.5472 5.37027 10.7986 5.14845C11.0501 4.92663 11.3768 4.80464 11.7151 4.8063H15.1148C15.2951 4.8063 15.468 4.73609 15.5955 4.61111C15.723 4.48612 15.7947 4.31661 15.7947 4.13986V0.674329Z" fill="white"/>
</symbol>

<symbol id="twitter" width="25" height="19" viewBox="0 0 25 19" fill="none" xmlns="http://www.w3.org/2000/svg">
<path d="M8.2157 19C17.2475 19 22.1883 11.6883 22.1883 5.35873C22.1883 5.15412 22.1883 4.9466 22.1793 4.74199C23.1412 4.06166 23.9714 3.21937 24.631 2.25459C23.7325 2.64165 22.7803 2.89676 21.8054 3.01162C22.8323 2.41189 23.6014 1.46827 23.9698 0.356148C23.005 0.914607 21.949 1.30664 20.848 1.51509C20.1079 0.744931 19.1284 0.234726 18.0614 0.0635014C16.9944 -0.107724 15.8994 0.0695869 14.946 0.567968C13.9925 1.06635 13.2339 1.85799 12.7876 2.82026C12.3413 3.78253 12.2323 4.86173 12.4773 5.8907C10.5249 5.79505 8.61481 5.29949 6.871 4.43617C5.1272 3.57285 3.58861 2.36104 2.35502 0.879351C1.72877 1.93611 1.53765 3.18612 1.82047 4.37555C2.10329 5.56499 2.83885 6.60467 3.87778 7.28347C3.09925 7.25763 2.33785 7.05338 1.65497 6.68719V6.75296C1.65631 7.85999 2.04883 8.93261 2.76618 9.78952C3.48353 10.6464 4.48172 11.2351 5.592 11.4559C5.17057 11.5694 4.73523 11.6259 4.29811 11.624C3.98994 11.6249 3.68239 11.597 3.37966 11.5407C3.69347 12.4937 4.3045 13.3269 5.12717 13.9236C5.94984 14.5203 6.94294 14.8507 7.96739 14.8685C6.22707 16.2039 4.07732 16.9282 1.86438 16.9247C1.47445 16.9263 1.08479 16.9044 0.697632 16.859C2.94365 18.258 5.55206 19.0008 8.2157 19Z" fill="white"/>
</symbol>

<symbol id="discord" width="25" height="18" viewBox="0 0 25 18" fill="none" xmlns="http://www.w3.org/2000/svg">
<path d="M20.7952 1.49315C19.2432 0.790432 17.6057 0.288888 15.9232 0.00102518C15.908 -0.00150766 15.8923 0.000679868 15.8784 0.00728706C15.8645 0.0138943 15.853 0.0245966 15.8455 0.0379225C15.6346 0.406896 15.4012 0.889512 15.2382 1.26734C13.4246 0.995789 11.58 0.995789 9.76643 1.26734C9.58455 0.846446 9.3788 0.43599 9.15015 0.0379225C9.14247 0.0247425 9.13094 0.0141635 9.11705 0.00757754C9.10317 0.000991578 9.08759 -0.00129268 9.07236 0.00102518C7.38956 0.287348 5.75163 0.789152 4.20046 1.49315C4.18718 1.49815 4.17608 1.50754 4.16905 1.51972C1.0667 6.09351 0.215577 10.5551 0.632913 14.9607C0.634409 14.9813 0.647871 15.002 0.664325 15.0153C2.47087 16.3356 4.49153 17.3437 6.64015 17.9966C6.65532 18.0013 6.67162 18.0011 6.68669 17.9961C6.70175 17.991 6.71479 17.9814 6.72392 17.9685C7.18463 17.3487 7.59449 16.6948 7.9475 16.0071C7.95486 15.9929 7.95738 15.9768 7.95468 15.9611C7.95199 15.9454 7.94422 15.931 7.93254 15.92C7.92481 15.9128 7.91564 15.9073 7.90562 15.9038C7.26116 15.6594 6.637 15.3658 6.03883 15.0256C6.02212 15.0163 6.0097 15.0009 6.00413 14.9828C5.99856 14.9647 6.00027 14.9451 6.00891 14.9282C6.014 14.9172 6.0217 14.9076 6.03135 14.9002C6.157 14.8072 6.28265 14.7098 6.40231 14.6124C6.41289 14.604 6.42557 14.5986 6.43901 14.5968C6.45245 14.5949 6.46613 14.5968 6.4786 14.602C10.3962 16.3672 14.6368 16.3672 18.5065 14.602C18.5195 14.5965 18.5337 14.5946 18.5476 14.5964C18.5616 14.5982 18.5748 14.6037 18.5858 14.6124C18.7055 14.7098 18.8311 14.8072 18.9568 14.9002C18.967 14.9075 18.9751 14.9172 18.9806 14.9284C18.986 14.9397 18.9886 14.952 18.988 14.9645C18.9874 14.9769 18.9837 14.989 18.9772 14.9997C18.9707 15.0103 18.9616 15.0192 18.9508 15.0256C18.354 15.3689 17.729 15.6621 17.0825 15.9023C17.0722 15.906 17.0628 15.9118 17.0551 15.9195C17.0473 15.9271 17.0414 15.9364 17.0376 15.9466C17.0342 15.9564 17.0328 15.9669 17.0336 15.9773C17.0343 15.9877 17.0373 15.9978 17.0421 16.0071C17.4011 16.6934 17.8125 17.3487 18.2642 17.9685C18.2733 17.9814 18.2864 17.991 18.3014 17.9961C18.3165 18.0011 18.3328 18.0013 18.348 17.9966C20.5002 17.3458 22.5241 16.3375 24.3328 15.0153C24.3418 15.0091 24.3494 15.001 24.3548 14.9915C24.3602 14.9821 24.3635 14.9715 24.3642 14.9607C24.8638 9.86736 23.528 5.44264 20.8251 1.52119C20.8223 1.51472 20.8183 1.50888 20.8131 1.50405C20.808 1.49922 20.8018 1.4955 20.7952 1.49315ZM8.53237 12.2775C7.35216 12.2775 6.38137 11.209 6.38137 9.89836C6.38137 8.58629 7.33421 7.51774 8.53237 7.51774C9.7395 7.51774 10.7013 8.59515 10.6834 9.89836C10.6834 11.209 9.73053 12.2775 8.53237 12.2775ZM16.4842 12.2775C15.3055 12.2775 14.3332 11.209 14.3332 9.89836C14.3332 8.58629 15.286 7.51774 16.4842 7.51774C17.6913 7.51774 18.6546 8.59515 18.6352 9.89836C18.6352 11.209 17.6913 12.2775 16.4842 12.2775Z" fill="white"/>
</symbol>

<symbol id="attention" width="48" height="48" viewBox="0 0 48 48" fill="none" xmlns="http://www.w3.org/2000/svg">
<path d="M24 44C26.627 44.0034 29.2287 43.4876 31.6556 42.4823C34.0826 41.477 36.2869 40.002 38.142 38.142C40.002 36.2869 41.477 34.0826 42.4823 31.6556C43.4876 29.2287 44.0034 26.627 44 24C44.0034 21.3731 43.4876 18.7714 42.4823 16.3444C41.4769 13.9175 40.0019 11.7131 38.142 9.85802C36.2869 7.99804 34.0826 6.52302 31.6556 5.5177C29.2287 4.51239 26.627 3.99661 24 4.00002C21.3731 3.99667 18.7714 4.51247 16.3444 5.51778C13.9175 6.52309 11.7131 7.99809 9.85802 9.85802C7.99809 11.7131 6.52309 13.9175 5.51778 16.3444C4.51247 18.7714 3.99667 21.3731 4.00002 24C3.99661 26.627 4.51239 29.2287 5.5177 31.6556C6.52302 34.0826 7.99804 36.2869 9.85802 38.142C11.7131 40.0019 13.9175 41.4769 16.3444 42.4823C18.7714 43.4876 21.3731 44.0034 24 44V44Z" stroke="#FF9C40" stroke-width="4" stroke-linejoin="round"/>
<path fill-rule="evenodd" clip-rule="evenodd" d="M24 37C24.663 37 25.2989 36.7366 25.7678 36.2678C26.2366 35.7989 26.5 35.163 26.5 34.5C26.5 33.837 26.2366 33.2011 25.7678 32.7322C25.2989 32.2634 24.663 32 24 32C23.337 32 22.7011 32.2634 22.2322 32.7322C21.7634 33.2011 21.5 33.837 21.5 34.5C21.5 35.163 21.7634 35.7989 22.2322 36.2678C22.7011 36.7366 23.337 37 24 37Z" fill="#FF9C40"/>
<path d="M24 12V28" stroke="#FF9C40" stroke-width="4" stroke-linecap="round" stroke-linejoin="round"/>
</symbol>

<symbol id="icon-search" viewBox="0 0 24 24">
<path d="M16.041 15.856c-0.034 0.026-0.067 0.055-0.099 0.087s-0.060 0.064-0.087 0.099c-1.258 1.213-2.969 1.958-4.855 1.958-1.933 0-3.682-0.782-4.95-2.050s-2.050-3.017-2.050-4.95 0.782-3.682 2.050-4.95 3.017-2.050 4.95-2.050 3.682 0.782 4.95 2.050 2.050 3.017 2.050 4.95c0 1.886-0.745 3.597-1.959 4.856zM21.707 20.293l-3.675-3.675c1.231-1.54 1.968-3.493 1.968-5.618 0-2.485-1.008-4.736-2.636-6.364s-3.879-2.636-6.364-2.636-4.736 1.008-6.364 2.636-2.636 3.879-2.636 6.364 1.008 4.736 2.636 6.364 3.879 2.636 6.364 2.636c2.125 0 4.078-0.737 5.618-1.968l3.675 3.675c0.391 0.391 1.024 0.391 1.414 0s0.391-1.024 0-1.414z"></path>
</symbol>
<symbol id="icon-send" viewBox="0 0 24 24">
<path d="M22.963 2.269c0.043-0.151 0.050-0.314 0.015-0.476-0.024-0.113-0.068-0.224-0.131-0.325-0.064-0.102-0.145-0.19-0.238-0.262-0.117-0.090-0.249-0.15-0.386-0.181s-0.282-0.034-0.426-0.004c-0.042 0.009-0.085 0.021-0.126 0.035l-0.021 0.007-19.98 6.993c-0.252 0.088-0.467 0.276-0.584 0.538-0.224 0.505 0.003 1.096 0.508 1.32l8.649 3.844 3.844 8.649c0.108 0.243 0.313 0.443 0.583 0.538 0.521 0.182 1.092-0.092 1.274-0.614l6.993-19.979c0.010-0.027 0.019-0.054 0.027-0.082zM10.779 11.807l-6.068-2.696 13.483-4.72zM19.609 5.806l-4.72 13.483-2.696-6.068z"></path>
</symbol>
<symbol id="icon-smile" viewBox="0 0 24 24">
<path d="M23 12c0-3.037-1.232-5.789-3.222-7.778s-4.741-3.222-7.778-3.222-5.789 1.232-7.778 3.222-3.222 4.741-3.222 7.778 1.232 5.789 3.222 7.778 4.741 3.222 7.778 3.222 5.789-1.232 7.778-3.222 3.222-4.741 3.222-7.778zM21 12c0 2.486-1.006 4.734-2.636 6.364s-3.878 2.636-6.364 2.636-4.734-1.006-6.364-2.636-2.636-3.878-2.636-6.364 1.006-4.734 2.636-6.364 3.878-2.636 6.364-2.636 4.734 1.006 6.364 2.636 2.636 3.878 2.636 6.364zM7.2 14.6c0 0 0.131 0.173 0.331 0.383 0.145 0.153 0.338 0.341 0.577 0.54 0.337 0.281 0.772 0.59 1.297 0.853 0.705 0.352 1.579 0.624 2.595 0.624s1.89-0.272 2.595-0.624c0.525-0.263 0.96-0.572 1.297-0.853 0.239-0.199 0.432-0.387 0.577-0.54 0.2-0.21 0.331-0.383 0.331-0.383 0.331-0.442 0.242-1.069-0.2-1.4s-1.069-0.242-1.4 0.2c-0.041 0.050-0.181 0.206-0.181 0.206-0.1 0.105-0.237 0.239-0.408 0.382-0.243 0.203-0.549 0.419-0.91 0.6-0.48 0.239-1.050 0.412-1.701 0.412s-1.221-0.173-1.701-0.413c-0.36-0.18-0.667-0.397-0.91-0.6-0.171-0.143-0.308-0.277-0.408-0.382-0.14-0.155-0.181-0.205-0.181-0.205-0.331-0.442-0.958-0.531-1.4-0.2s-0.531 0.958-0.2 1.4zM9 10c0.552 0 1-0.448 1-1s-0.448-1-1-1-1 0.448-1 1 0.448 1 1 1zM15 10c0.552 0 1-0.448 1-1s-0.448-1-1-1-1 0.448-1 1 0.448 1 1 1z"></path>
</symbol>
<symbol id="icon-user" viewBox="0 0 24 24">
<path d="M21 21v-2c0-1.38-0.561-2.632-1.464-3.536s-2.156-1.464-3.536-1.464h-8c-1.38 0-2.632 0.561-3.536 1.464s-1.464 2.156-1.464 3.536v2c0 0.552 0.448 1 1 1s1-0.448 1-1v-2c0-0.829 0.335-1.577 0.879-2.121s1.292-0.879 2.121-0.879h8c0.829 0 1.577 0.335 2.121 0.879s0.879 1.292 0.879 2.121v2c0 0.552 0.448 1 1 1s1-0.448 1-1zM17 7c0-1.38-0.561-2.632-1.464-3.536s-2.156-1.464-3.536-1.464-2.632 0.561-3.536 1.464-1.464 2.156-1.464 3.536 0.561 2.632 1.464 3.536 2.156 1.464 3.536 1.464 2.632-0.561 3.536-1.464 1.464-2.156 1.464-3.536zM15 7c0 0.829-0.335 1.577-0.879 2.121s-1.292 0.879-2.121 0.879-1.577-0.335-2.121-0.879-0.879-1.292-0.879-2.121 0.335-1.577 0.879-2.121 1.292-0.879 2.121-0.879 1.577 0.335 2.121 0.879 0.879 1.292 0.879 2.121z"></path>
</symbol>
<symbol id="icon-upload-cloud" viewBox="0 0 24 24">
<path d="M11 14.414v6.586c0 0.552 0.448 1 1 1s1-0.448 1-1v-6.586l2.293 2.293c0.391 0.391 1.024 0.391 1.414 0s0.391-1.024 0-1.414l-4-4c-0.092-0.092-0.202-0.166-0.324-0.217s-0.253-0.076-0.383-0.076c-0.256 0-0.512 0.098-0.707 0.293l-4 4c-0.391 0.391-0.391 1.024 0 1.414s1.024 0.391 1.414 0zM20.869 19.268c1.454-0.793 2.451-2.102 2.884-3.574s0.305-3.112-0.488-4.566c-0.679-1.245-1.737-2.155-2.959-2.663-0.724-0.301-1.505-0.46-2.299-0.465h-0.527c-0.725-2.057-2.144-3.708-3.917-4.752-1.983-1.168-4.415-1.581-6.821-0.959s-4.333 2.162-5.502 4.145-1.581 4.415-0.959 6.821c0.372 1.437 1.073 2.709 1.975 3.713 0.369 0.411 1.002 0.444 1.412 0.075s0.444-1.002 0.075-1.412c-0.688-0.765-1.235-1.75-1.526-2.877-0.484-1.872-0.164-3.761 0.746-5.305s2.407-2.74 4.279-3.224 3.761-0.164 5.305 0.746 2.74 2.407 3.224 4.279c0.116 0.435 0.506 0.75 0.969 0.75h1.253c0.536 0.004 1.061 0.111 1.545 0.312 0.815 0.339 1.517 0.943 1.97 1.773 0.529 0.97 0.615 2.061 0.325 3.044s-0.953 1.854-1.923 2.382c-0.485 0.264-0.664 0.872-0.399 1.357s0.872 0.664 1.357 0.399z"></path>
</symbol>
<symbol id="icon-users" viewBox="0 0 24 24">
<path d="M18 21v-2c0-1.38-0.561-2.632-1.464-3.536s-2.156-1.464-3.536-1.464h-8c-1.38 0-2.632 0.561-3.536 1.464s-1.464 2.156-1.464 3.536v2c0 0.552 0.448 1 1 1s1-0.448 1-1v-2c0-0.829 0.335-1.577 0.879-2.121s1.292-0.879 2.121-0.879h8c0.829 0 1.577 0.335 2.121 0.879s0.879 1.292 0.879 2.121v2c0 0.552 0.448 1 1 1s1-0.448 1-1zM14 7c0-1.38-0.561-2.632-1.464-3.536s-2.156-1.464-3.536-1.464-2.632 0.561-3.536 1.464-1.464 2.156-1.464 3.536 0.561 2.632 1.464 3.536 2.156 1.464 3.536 1.464 2.632-0.561 3.536-1.464 1.464-2.156 1.464-3.536zM12 7c0 0.829-0.335 1.577-0.879 2.121s-1.292 0.879-2.121 0.879-1.577-0.335-2.121-0.879-0.879-1.292-0.879-2.121 0.335-1.577 0.879-2.121 1.292-0.879 2.121-0.879 1.577 0.335 2.121 0.879 0.879 1.292 0.879 2.121zM24 21v-2c-0.001-1.245-0.457-2.385-1.215-3.261-0.652-0.753-1.528-1.311-2.529-1.576-0.534-0.141-1.081 0.177-1.222 0.711s0.177 1.081 0.711 1.222c0.607 0.161 1.136 0.498 1.528 0.952 0.454 0.526 0.726 1.206 0.727 1.952v2c0 0.552 0.448 1 1 1s1-0.448 1-1zM15.752 4.099c0.803 0.206 1.445 0.715 1.837 1.377s0.531 1.47 0.325 2.273c-0.176 0.688-0.575 1.256-1.105 1.652-0.314 0.235-0.675 0.409-1.063 0.511-0.534 0.14-0.854 0.687-0.713 1.221s0.687 0.854 1.221 0.713c0.637-0.167 1.232-0.455 1.752-0.844 0.884-0.66 1.552-1.613 1.845-2.758 0.342-1.337 0.11-2.689-0.542-3.788s-1.725-1.953-3.062-2.296c-0.535-0.137-1.080 0.186-1.217 0.721s0.186 1.080 0.721 1.217z"></path>
</symbol>
</defs>
</svg>
